<?xml version="1.0" encoding="UTF-8" standalone="no"?>
<svg width="216px" height="42px" viewBox="0 0 216 42" version="1.1" xmlns="http://www.w3.org/2000/svg" xmlns:xlink="http://www.w3.org/1999/xlink" xmlns:sketch="http://www.bohemiancoding.com/sketch/ns">
    <!-- Generator: Sketch 3.3.2 (12043) - http://www.bohemiancoding.com/sketch -->
    <title>button</title>
    <desc>Created with Sketch.</desc>
    <defs>
        <linearGradient x1="50%" y1="3.05923151%" x2="50%" y2="100%" id="linearGradient-1">
            <stop stop-color="#1491DE" offset="0%"></stop>
            <stop stop-color="#127DBF" offset="100%"></stop>
        </linearGradient>
    </defs>
    <g id="Page-1" stroke="none" stroke-width="1" fill="none" fill-rule="evenodd" sketch:type="MSPage">
        <g id="button" sketch:type="MSArtboardGroup">
            <g id="Group-2" sketch:type="MSLayerGroup">
                <rect id="Rectangle-34" stroke="#082F47" stroke-width="0.5" fill="url(#linearGradient-1)" sketch:type="MSShapeGroup" x="0" y="0" width="216" height="42" rx="2"></rect>
                <g id="Imported-Layers" transform="translate(7.000000, 8.000000)" fill="#FFFFFF" sketch:type="MSShapeGroup">
                    <path d="M26.9486678,2.36668783 L22.8791193,3.83236332 C20.7949216,1.47452557 17.7310426,0.0156825397 14.1841993,0.0156825397 C7.10394378,0.0156825397 0.781666099,5.82922751 0.0624633731,13.0008713 C-0.656693356,20.1721023 4.49929472,25.9856931 11.5794123,25.9856931 C18.6594838,25.9856931 24.9817615,20.1721023 25.7009642,13.0008713 C25.9459881,10.5584762 25.5095264,8.2731358 24.5474157,6.32157672 L26.9486678,2.36668783 L26.9486678,2.36668783 Z M23.948448,11.7152698 C23.4002606,17.1807725 18.3928876,21.6105855 12.7641925,21.6105855 C7.13554344,21.6105855 3.01700852,17.1807725 3.56519591,11.7152698 C4.1133833,6.25022575 9.1206184,1.82 14.7490375,1.82 C17.9512743,1.82 20.6650273,3.25357672 22.3082095,5.49622575 L25.001862,3.87010229 L22.7642198,6.18529453 L21.1459676,7.86575661 L12.1201942,17.2000317 C12.8325894,17.4763563 13.621799,17.6281834 14.4625707,17.6281834 C18.1327308,17.6281834 21.397201,14.7395238 21.7543646,11.176515 C21.830121,10.4202681 21.7689455,9.69465256 21.5905707,9.02030335 L23.1167836,6.84070547 C23.8128961,8.27955556 24.1262709,9.94305115 23.948448,11.7152698 L23.948448,11.7152698 Z" id="Fill-1"></path>
                    <path d="M15.7562709,4.72415873 C12.0863407,4.72415873 8.82177853,7.61281834 8.464477,11.176515 C8.37510562,12.0679436 8.47620613,12.9174145 8.7358109,13.6898942 L20.3334378,6.68819048 C19.2468603,5.47737919 17.6299421,4.72415873 15.7562709,4.72415873" id="Fill-2"></path>
                </g>
                <path d="M39.5,0.5 L39.5,40.8112869" id="Line" stroke="#0F6499" stroke-linecap="square" sketch:type="MSShapeGroup"></path>
                <path d="M51.7749999,25.168 C53.8329999,25.168 55.0089999,24.034 55.6809999,22.872 L53.9729999,22.046 C53.5809999,22.816 52.7409999,23.404 51.7749999,23.404 C50.0809999,23.404 48.8489999,22.102 48.8489999,20.338 C48.8489999,18.574 50.0809999,17.272 51.7749999,17.272 C52.7409999,17.272 53.5809999,17.874 53.9729999,18.63 L55.6809999,17.79 C55.0229999,16.628 53.8329999,15.508 51.7749999,15.508 C48.9749999,15.508 46.8049999,17.468 46.8049999,20.338 C46.8049999,23.208 48.9749999,25.168 51.7749999,25.168 L51.7749999,25.168 Z M60.2649999,25.168 C62.5049999,25.168 63.8489999,23.544 63.8489999,21.612 C63.8489999,19.694 62.5049999,18.07 60.2649999,18.07 C58.0389999,18.07 56.6949999,19.694 56.6949999,21.612 C56.6949999,23.544 58.0389999,25.168 60.2649999,25.168 L60.2649999,25.168 Z M60.2649999,23.586 C59.1589999,23.586 58.5429999,22.676 58.5429999,21.612 C58.5429999,20.562 59.1589999,19.652 60.2649999,19.652 C61.3709999,19.652 62.0009999,20.562 62.0009999,21.612 C62.0009999,22.676 61.3709999,23.586 60.2649999,23.586 L60.2649999,23.586 Z M71.8069999,25 L71.8069999,20.226 C71.8069999,18.91 71.0929999,18.07 69.6089999,18.07 C68.5029999,18.07 67.6769999,18.602 67.2429999,19.12 L67.2429999,18.238 L65.4649999,18.238 L65.4649999,25 L67.2429999,25 L67.2429999,20.45 C67.5369999,20.044 68.0829999,19.652 68.7829999,19.652 C69.5389999,19.652 70.0289999,19.974 70.0289999,20.912 L70.0289999,25 L71.8069999,25 Z M80.2129999,25 L80.2129999,20.226 C80.2129999,18.91 79.4989999,18.07 78.0149999,18.07 C76.9089999,18.07 76.0829999,18.602 75.6489999,19.12 L75.6489999,18.238 L73.8709999,18.238 L73.8709999,25 L75.6489999,25 L75.6489999,20.45 C75.9429999,20.044 76.4889999,19.652 77.1889999,19.652 C77.9449999,19.652 78.4349999,19.974 78.4349999,20.912 L78.4349999,25 L80.2129999,25 Z M85.4549999,25.168 C86.5049999,25.168 87.5689999,24.846 88.2409999,24.23 L87.4569999,23.082 C87.0229999,23.502 86.2249999,23.754 85.6509999,23.754 C84.5029999,23.754 83.8169999,23.04 83.7049999,22.186 L88.7309999,22.186 L88.7309999,21.794 C88.7309999,19.582 87.3589999,18.07 85.3429999,18.07 C83.2849999,18.07 81.8429999,19.652 81.8429999,21.612 C81.8429999,23.782 83.3969999,25.168 85.4549999,25.168 L85.4549999,25.168 Z M87.0089999,20.982 L83.6769999,20.982 C83.7609999,20.31 84.2369999,19.484 85.3429999,19.484 C86.5189999,19.484 86.9669999,20.338 87.0089999,20.982 L87.0089999,20.982 Z M93.4689999,25.168 C94.8549999,25.168 95.6949999,24.566 96.1429999,23.936 L94.9809999,22.858 C94.6589999,23.306 94.1689999,23.586 93.5529999,23.586 C92.4749999,23.586 91.7189999,22.788 91.7189999,21.612 C91.7189999,20.436 92.4749999,19.652 93.5529999,19.652 C94.1689999,19.652 94.6589999,19.904 94.9809999,20.38 L96.1429999,19.288 C95.6949999,18.672 94.8549999,18.07 93.4689999,18.07 C91.3829999,18.07 89.8849999,19.54 89.8849999,21.612 C89.8849999,23.698 91.3829999,25.168 93.4689999,25.168 L93.4689999,25.168 Z M99.8729999,25.168 C100.615,25.168 101.091,24.972 101.357,24.734 L100.979,23.39 C100.881,23.488 100.629,23.586 100.363,23.586 C99.9709999,23.586 99.7469999,23.264 99.7469999,22.844 L99.7469999,19.792 L101.119,19.792 L101.119,18.238 L99.7469999,18.238 L99.7469999,16.39 L97.9549999,16.39 L97.9549999,18.238 L96.8349999,18.238 L96.8349999,19.792 L97.9549999,19.792 L97.9549999,23.32 C97.9549999,24.524 98.6269999,25.168 99.8729999,25.168 L99.8729999,25.168 Z M114.347,25 L116.405,18.238 L114.557,18.238 L113.297,22.788 L111.813,18.238 L110.231,18.238 L108.747,22.788 L107.487,18.238 L105.639,18.238 L107.697,25 L109.601,25 L111.029,20.394 L112.457,25 L114.347,25 Z M118.469,17.51 C119.057,17.51 119.533,17.034 119.533,16.446 C119.533,15.858 119.057,15.396 118.469,15.396 C117.895,15.396 117.405,15.858 117.405,16.446 C117.405,17.034 117.895,17.51 118.469,17.51 L118.469,17.51 Z M119.365,25 L119.365,18.238 L117.587,18.238 L117.587,25 L119.365,25 Z M123.697,25.168 C124.439,25.168 124.915,24.972 125.181,24.734 L124.803,23.39 C124.705,23.488 124.453,23.586 124.187,23.586 C123.795,23.586 123.571,23.264 123.571,22.844 L123.571,19.792 L124.943,19.792 L124.943,18.238 L123.571,18.238 L123.571,16.39 L121.779,16.39 L121.779,18.238 L120.659,18.238 L120.659,19.792 L121.779,19.792 L121.779,23.32 C121.779,24.524 122.451,25.168 123.697,25.168 L123.697,25.168 Z M132.817,25 L132.817,20.198 C132.817,18.882 132.103,18.07 130.619,18.07 C129.513,18.07 128.673,18.602 128.239,19.12 L128.239,15.662 L126.461,15.662 L126.461,25 L128.239,25 L128.239,20.45 C128.547,20.044 129.093,19.652 129.779,19.652 C130.549,19.652 131.039,19.946 131.039,20.884 L131.039,25 L132.817,25 Z M143.231,25.168 C146.059,25.168 148.117,23.152 148.117,20.338 C148.117,17.524 146.059,15.508 143.231,15.508 C140.417,15.508 138.359,17.524 138.359,20.338 C138.359,23.152 140.417,25.168 143.231,25.168 L143.231,25.168 Z M143.231,23.404 C141.509,23.404 140.403,22.074 140.403,20.338 C140.403,18.588 141.509,17.272 143.231,17.272 C144.953,17.272 146.073,18.588 146.073,20.338 C146.073,22.074 144.953,23.404 143.231,23.404 L143.231,23.404 Z M153.639,25.168 C155.375,25.168 156.635,23.866 156.635,21.612 C156.635,19.358 155.375,18.07 153.639,18.07 C152.813,18.07 152.071,18.434 151.553,19.092 L151.553,18.238 L149.775,18.238 L149.775,27.576 L151.553,27.576 L151.553,24.132 C152.099,24.832 152.841,25.168 153.639,25.168 L153.639,25.168 Z M153.079,23.586 C152.505,23.586 151.847,23.236 151.553,22.816 L151.553,20.422 C151.847,19.988 152.505,19.652 153.079,19.652 C154.101,19.652 154.787,20.45 154.787,21.612 C154.787,22.788 154.101,23.586 153.079,23.586 L153.079,23.586 Z M160.505,25.168 C161.247,25.168 161.723,24.972 161.989,24.734 L161.611,23.39 C161.513,23.488 161.261,23.586 160.995,23.586 C160.603,23.586 160.379,23.264 160.379,22.844 L160.379,19.792 L161.751,19.792 L161.751,18.238 L160.379,18.238 L160.379,16.39 L158.587,16.39 L158.587,18.238 L157.467,18.238 L157.467,19.792 L158.587,19.792 L158.587,23.32 C158.587,24.524 159.259,25.168 160.505,25.168 L160.505,25.168 Z M164.151,17.51 C164.739,17.51 165.215,17.034 165.215,16.446 C165.215,15.858 164.739,15.396 164.151,15.396 C163.577,15.396 163.087,15.858 163.087,16.446 C163.087,17.034 163.577,17.51 164.151,17.51 L164.151,17.51 Z M165.047,25 L165.047,18.238 L163.269,18.238 L163.269,25 L165.047,25 Z M177.289,25 L177.289,20.114 C177.289,18.728 176.547,18.07 175.301,18.07 C174.265,18.07 173.369,18.686 172.977,19.302 C172.725,18.532 172.095,18.07 171.101,18.07 C170.065,18.07 169.169,18.714 168.889,19.12 L168.889,18.238 L167.111,18.238 L167.111,25 L168.889,25 L168.889,20.45 C169.155,20.072 169.673,19.652 170.289,19.652 C171.017,19.652 171.297,20.1 171.297,20.73 L171.297,25 L173.089,25 L173.089,20.436 C173.341,20.072 173.859,19.652 174.489,19.652 C175.217,19.652 175.497,20.1 175.497,20.73 L175.497,25 L177.289,25 Z M180.221,17.51 C180.809,17.51 181.285,17.034 181.285,16.446 C181.285,15.858 180.809,15.396 180.221,15.396 C179.647,15.396 179.157,15.858 179.157,16.446 C179.157,17.034 179.647,17.51 180.221,17.51 L180.221,17.51 Z M181.117,25 L181.117,18.238 L179.339,18.238 L179.339,25 L181.117,25 Z M188.403,25 L188.403,23.446 L185.253,23.446 L188.347,19.526 L188.347,18.238 L182.887,18.238 L182.887,19.792 L185.939,19.792 L182.887,23.67 L182.887,25 L188.403,25 Z M193.365,25.168 C194.415,25.168 195.479,24.846 196.151,24.23 L195.367,23.082 C194.933,23.502 194.135,23.754 193.561,23.754 C192.413,23.754 191.727,23.04 191.615,22.186 L196.641,22.186 L196.641,21.794 C196.641,19.582 195.269,18.07 193.253,18.07 C191.195,18.07 189.753,19.652 189.753,21.612 C189.753,23.782 191.307,25.168 193.365,25.168 L193.365,25.168 Z M194.919,20.982 L191.587,20.982 C191.671,20.31 192.147,19.484 193.253,19.484 C194.429,19.484 194.877,20.338 194.919,20.982 L194.919,20.982 Z M200.007,25 L200.007,15.662 L198.229,15.662 L198.229,25 L200.007,25 Z M201.833,27.646 C202.057,27.702 202.505,27.744 202.715,27.744 C203.877,27.716 204.773,27.38 205.277,26.106 L208.455,18.238 L206.537,18.238 L204.773,22.942 L203.009,18.238 L201.105,18.238 L203.849,25.098 L203.597,25.672 C203.429,26.036 203.121,26.162 202.659,26.162 C202.491,26.162 202.253,26.12 202.099,26.05 L201.833,27.646 Z" id="Connect-with-Optimiz" fill="#FFFFFF" sketch:type="MSShapeGroup"></path>
            </g>
        </g>
    </g>
</svg>