<svg xmlns="http://www.w3.org/2000/svg" xmlns:xlink="http://www.w3.org/1999/xlink" version="1.1" id="Layer_1" x="0px" y="0px" width="622.707px" height="133.371px" viewBox="0 0 622.707 133.371" enable-background="new 0 0 622.707 133.371" xml:space="preserve"><style>.style0{fill:	#FFFFFF;}</style><path d="M108.59 60.794l1.294-12.939c-0.247-5.945-1.658-11.311-4.202-16.238l-6.799 9.4 c0.939 3.1 1.3 6.5 1 10.041c-1.294 16.17-15.985 29.277-32.815 29.277c-3.951 0-7.669-0.723-11.028-2.037l40.632-42.445 l17.156-17.405l-12.22 6.459C93.542 14.7 80.5 8.6 65.6 9.247c-25.691 1.028-47.519 21.929-48.753 46.7 c-1.235 24.8 18.6 44 44.3 42.965C83.765 98 103.4 81.6 108.6 60.794z M154.74 71 c0.694-6.939 0.119-11.978-1.727-15.11c-1.804-3.13-4.971-4.696-9.498-4.698c-1.99 0-4.012 0.318-6.063 1 c-2.012 0.635-4.031 1.586-6.063 2.855l-3.587 35.873c1.134 0.5 2.4 0.9 3.8 1.078c1.417 0.2 3.1 0.3 5 0.3 c5.416 0 9.613-1.756 12.59-5.27C152.182 83.5 154 78.1 154.7 71.025z M204.872 108.611c-9.059 0-15.476-1.861-19.25-5.588 c-3.734-3.723-5.177-9.818-4.33-18.285l3.334-33.33h-8.117c1.41 5.4 1.7 11.8 1 19.2 c-1.139 11.386-4.958 20.571-11.453 27.554c-6.456 6.984-13.916 10.477-22.38 10.477c-3.556 0-6.606-0.402-9.149-1.207 c-2.544-0.803-5.213-2.051-8.006-3.746l-2.972 29.713h-22.221l4.025-40.254c-11.864 15.891-30.641 26.336-50.991 26.3 c-32.557 0-56.81-26.74-54.171-59.727C2.836 26.7 31.4 0 63.9 0c16.505 0 30.9 6.9 40.7 17.946l18.727-7.172 l-11.065 18.443c1.091 2.1 2 4.4 2.9 6.698h18.17l-0.743 7.428c3.537-2.793 7.087-5.057 10.647-6.793 c3.558-1.734 7.559-2.601 12.006-2.603c3.691 0 6.9 0.7 9.8 1.968h21.206l2.038-20.38h22.222l-2.038 20.38h21.396 l-1.549 15.492h-21.396l-2.527 25.268c-0.25 2.498-0.448 4.678-0.59 6.539c-0.145 1.9 0 3.5 0.5 5 c0.443 1.5 1.4 2.7 2.8 3.557c1.439 0.8 3.6 1.3 6.5 1.27c1.185 0 2.754-0.254 4.711-0.762 c1.997-0.508 3.397-0.973 4.203-1.396h1.905l-1.568 15.682c-2.477 0.635-5.086 1.121-7.829 1.5 C212.148 108.4 208.8 108.6 204.9 108.611z M38.975 51.06c1.293-16.17 15.985-29.278 32.815-29.278 c8.438 0 15.8 3.3 20.9 8.62L42.788 67.298C39.93 62.7 38.5 57.1 39 51.06z M249.732 107.214h-22.221l7.13-71.299 h22.222L249.732 107.214z M258.513 25.757h-23.491l1.733-17.332h23.491L258.513 25.757z M340.029 107.214l3.562-35.617 c0.352-3.512 0.584-6.475 0.697-8.889c0.115-2.413-0.07-4.381-0.553-5.904c-0.48-1.525-1.367-2.623-2.652-3.303 c-1.242-0.717-3.066-1.076-5.479-1.078c-1.695 0-3.404 0.381-5.131 1.143c-1.723 0.72-3.627 1.758-5.707 3.111l-5.055 50.5 h-22.348l3.562-35.617c0.347-3.471 0.556-6.411 0.628-8.826c0.119-2.453-0.062-4.441-0.545-5.967s-1.369-2.623-2.654-3.303 c-1.242-0.717-3.047-1.076-5.416-1.078c-1.82 0-3.641 0.424-5.46 1.27c-1.82 0.848-3.612 1.841-5.378 2.984l-5.054 50.537h-22.221 l7.13-71.299h22.222l-0.788 7.873c3.948-3.09 7.618-5.502 11.01-7.238c3.39-1.734 7.095-2.601 11.117-2.603 c4.359 0 8.1 1 11.2 3.111c3.094 2.1 5.3 5.2 6.6 9.27c4.672-3.979 8.998-7.025 12.977-9.143 c4.025-2.158 7.984-3.238 11.879-3.238c3.301 0 6.2 0.5 8.7 1.587c2.516 1.1 4.6 2.6 6.2 4.8 c1.76 2.3 3 5 3.6 8.189c0.703 3.1 0.8 7.2 0.3 12.317l-4.643 46.411H340.029z M397.902 25.757h-23.49 l1.732-17.332h23.492L397.902 25.757z M455.587 90.199c-2.627-5.502-3.543-12.217-2.752-20.145 c1.164-11.639 5.438-20.93 12.82-27.871c7.379-6.941 17.082-10.411 29.104-10.413c10.918 0 18.8 2.9 23.8 8.8 c4.914 5.9 6.8 14.3 5.7 25.27l-0.801 8H474.74c-0.119 3.3 0.3 6.1 1.3 8.316c0.965 2.2 2.4 4 4.2 5.3 c1.773 1.3 3.9 2.3 6.4 2.857c2.482 0.6 5.2 0.8 8.2 0.824c2.582 0 5.15-0.273 7.701-0.824 c2.557-0.592 4.918-1.354 7.088-2.287c1.898-0.803 3.656-1.67 5.275-2.602c1.658-0.932 3.01-1.756 4.057-2.477h2.35l-1.836 18.3 c-1.893 0.721-3.631 1.396-5.219 2.031c-1.541 0.594-3.656 1.207-6.344 1.842c-2.475 0.635-5.021 1.121-7.637 1.5 c-1.932 0.285-4.176 0.465-6.73 0.535l-104.371 0.055h-2.291H366.9l7.131-71.299h22.221l-5.395 53.947l35.467-37.25l-26.469 0.1 l1.922-16.344l53.834-0.449l-1.441 14.412l-38.08 39.871H455.587z M502.873 60.468c0.342-4.699-0.4-8.273-2.229-10.73 c-1.787-2.454-4.797-3.68-9.029-3.682c-4.316 0-7.832 1.291-10.545 3.873c-2.672 2.582-4.355 6.094-5.053 10.539H502.873z M622.707 33.992l-45.746 97.457h-23.871l13.58-27.871l-15.143-54.883l-5.658 56.596h-22.223l9.881-98.789h22.221l-2.75 27.5 h17.838l10.514 44.697l18.502-44.697H622.707z" class="style0"/><g></g><g></g><g></g><g></g><g></g><g></g><g></g><g></g><g></g><g></g><g></g><g></g><g></g><g></g><g></g></svg>